<mxfile host="Electron" modified="2023-05-20T05:23:25.929Z" agent="Mozilla/5.0 (X11; Linux x86_64) AppleWebKit/537.36 (KHTML, like Gecko) draw.io/21.2.8 Chrome/112.0.5615.165 Electron/24.2.0 Safari/537.36" etag="0Zi5If9UItf7BKtRi9GI" version="21.2.8" type="device">
  <diagram name="Page-1" id="tpmm5qy2FPJMLZr56j2t">
    <mxGraphModel dx="1114" dy="890" grid="1" gridSize="10" guides="1" tooltips="1" connect="1" arrows="1" fold="1" page="1" pageScale="1" pageWidth="850" pageHeight="1100" math="0" shadow="0">
      <root>
        <mxCell id="0" />
        <mxCell id="1" parent="0" />
        <mxCell id="yN_6NNA6e4bb_lLPipn2-7" value="&lt;font style=&quot;font-size: 36px;&quot;&gt;Recursive Layers&lt;/font&gt;" style="text;html=1;strokeColor=none;fillColor=none;align=center;verticalAlign=middle;whiteSpace=wrap;rounded=0;" parent="1" vertex="1">
          <mxGeometry x="40" y="70" width="410" height="30" as="geometry" />
        </mxCell>
        <mxCell id="yN_6NNA6e4bb_lLPipn2-18" value="transformer head" style="rounded=0;whiteSpace=wrap;html=1;fillColor=#d5e8d4;strokeColor=#82b366;verticalAlign=top;" parent="1" vertex="1">
          <mxGeometry x="40" y="160" width="360" height="40" as="geometry" />
        </mxCell>
        <mxCell id="yN_6NNA6e4bb_lLPipn2-21" value="transformer input" style="rounded=0;whiteSpace=wrap;html=1;fillColor=#d5e8d4;strokeColor=#82b366;verticalAlign=top;" parent="1" vertex="1">
          <mxGeometry x="40" y="480" width="360" height="40" as="geometry" />
        </mxCell>
        <mxCell id="RVD_boX8sH5gL-I8M7GE-5" value="layer (l3)" style="rounded=0;whiteSpace=wrap;html=1;" parent="1" vertex="1">
          <mxGeometry x="480" y="240" width="240" height="40" as="geometry" />
        </mxCell>
        <mxCell id="RVD_boX8sH5gL-I8M7GE-9" value="transformer head" style="rounded=0;whiteSpace=wrap;html=1;fillColor=#d5e8d4;strokeColor=#82b366;verticalAlign=top;" parent="1" vertex="1">
          <mxGeometry x="440" y="160" width="360" height="40" as="geometry" />
        </mxCell>
        <mxCell id="RVD_boX8sH5gL-I8M7GE-10" value="transformer input" style="rounded=0;whiteSpace=wrap;html=1;fillColor=#d5e8d4;strokeColor=#82b366;verticalAlign=top;" parent="1" vertex="1">
          <mxGeometry x="440" y="480" width="360" height="40" as="geometry" />
        </mxCell>
        <mxCell id="RVD_boX8sH5gL-I8M7GE-11" value="layer (l2)" style="rounded=0;whiteSpace=wrap;html=1;" parent="1" vertex="1">
          <mxGeometry x="480" y="320" width="240" height="40" as="geometry" />
        </mxCell>
        <mxCell id="RVD_boX8sH5gL-I8M7GE-12" value="layer (l1)" style="rounded=0;whiteSpace=wrap;html=1;" parent="1" vertex="1">
          <mxGeometry x="480" y="400" width="240" height="40" as="geometry" />
        </mxCell>
        <mxCell id="iXio7Gw5eCZ3mNFQBBbh-5" value="recursiveLayer (l3)" style="rounded=0;whiteSpace=wrap;html=1;" vertex="1" parent="1">
          <mxGeometry x="80" y="240" width="240" height="40" as="geometry" />
        </mxCell>
        <mxCell id="iXio7Gw5eCZ3mNFQBBbh-7" value="recursiveLayer (l2)" style="rounded=0;whiteSpace=wrap;html=1;" vertex="1" parent="1">
          <mxGeometry x="80" y="320" width="240" height="40" as="geometry" />
        </mxCell>
        <mxCell id="iXio7Gw5eCZ3mNFQBBbh-9" value="recursiveLayer (l1)" style="rounded=0;whiteSpace=wrap;html=1;" vertex="1" parent="1">
          <mxGeometry x="80" y="400" width="240" height="40" as="geometry" />
        </mxCell>
        <mxCell id="iXio7Gw5eCZ3mNFQBBbh-10" style="edgeStyle=orthogonalEdgeStyle;rounded=0;orthogonalLoop=1;jettySize=auto;html=1;exitX=0.5;exitY=0;exitDx=0;exitDy=0;entryX=0.75;entryY=1;entryDx=0;entryDy=0;curved=1;" edge="1" parent="1" source="iXio7Gw5eCZ3mNFQBBbh-9" target="iXio7Gw5eCZ3mNFQBBbh-9">
          <mxGeometry relative="1" as="geometry" />
        </mxCell>
        <mxCell id="iXio7Gw5eCZ3mNFQBBbh-6" style="edgeStyle=orthogonalEdgeStyle;rounded=0;orthogonalLoop=1;jettySize=auto;html=1;exitX=0.5;exitY=0;exitDx=0;exitDy=0;entryX=0.75;entryY=1;entryDx=0;entryDy=0;curved=1;" edge="1" parent="1" source="iXio7Gw5eCZ3mNFQBBbh-5" target="iXio7Gw5eCZ3mNFQBBbh-5">
          <mxGeometry relative="1" as="geometry" />
        </mxCell>
        <mxCell id="iXio7Gw5eCZ3mNFQBBbh-8" style="edgeStyle=orthogonalEdgeStyle;rounded=0;orthogonalLoop=1;jettySize=auto;html=1;exitX=0.5;exitY=0;exitDx=0;exitDy=0;entryX=0.75;entryY=1;entryDx=0;entryDy=0;curved=1;" edge="1" parent="1" source="iXio7Gw5eCZ3mNFQBBbh-7" target="iXio7Gw5eCZ3mNFQBBbh-7">
          <mxGeometry relative="1" as="geometry" />
        </mxCell>
      </root>
    </mxGraphModel>
  </diagram>
</mxfile>
